<?xml version="1.0" encoding="utf-8"?>
<!-- Generator: Adobe Illustrator 24.3.0, SVG Export Plug-In . SVG Version: 6.00 Build 0)  -->
<svg version="1.1" xmlns="http://www.w3.org/2000/svg" xmlns:xlink="http://www.w3.org/1999/xlink" x="0px" y="0px"
	 viewBox="0 0 160 160" style="enable-background:new 0 0 160 160;" xml:space="preserve">
<style type="text/css">
	.st0{fill:#FFFFFF;stroke:#FFFFFF;stroke-miterlimit:10;}
</style>
<g id="Layer_1">
</g>
<g id="Layer_2">
	<path class="st0" d="M25.6,92c0,0,3.7,1,8.2,0.5c4.5-0.5,4.8-1,4.8-1s-6.3-1.9-9.8-3.9c-3.6-1.9-9.2-8.8-10.3-11.4
		c-1.1-2.6-3.2-8.1-2.8-13c0,0,5.5,2.7,8.9,3.1s4.3,0.5,4.3,0.5s-3.6-2.1-6-4.8s-5.8-9.7-6.6-13.6s-0.7-10.2,1-14.5s2.5-5.7,2.5-5.7
		s0.8,1.9,2.3,3.4c1.5,1.5,2.4,3.2,9.5,8.8s12.1,8.1,12.1,8.1s8.4,4.8,17.5,7.1c9.1,2.3,14.9,2.8,18,3c0,0-2-4.7-1-11.2
		c1-6.5,5.2-14.4,13-19.5s17.1-5.4,24.2-3.1c7.1,2.3,12.5,7.6,12.5,7.6s10-2.4,15.3-5.5c0,0,2.3-1.2,3.4-1.9
		c0.1-0.1,0.1-0.1,0.2-0.1c0.9-0.7-1.2,2.2-2.2,4.1s-3.5,6.7-7.2,9.6c-3.7,2.9-4.9,2.9-4.9,2.9s5.5-0.7,7.4-1.3
		c1.9-0.5,8-2.3,9.9-3.4c1.8-1.1-2.7,3.9-3.4,4.7s-7.1,7.5-10.8,10c0,0,0.3,10.8-1.1,17.1s-2.8,13.2-6.6,21.2
		c-3.9,8-9.3,17.3-20.6,27.2s-29.4,17-38.3,17.9c-8.9,0.8-16.5,2.1-27.1,0.4c-10.6-1.7-22.3-6.7-24.7-7.8s-7.8-4.4-7.8-4.4
		s4.3,0.6,7.1,0.6s7.2-0.3,10.4-0.9s13.9-3.4,19.5-7.1c5.6-3.7,6.4-4.3,6.4-4.3s-4.3,0.2-7.8-1c-3.4-1.2-11.8-5.4-15-10
		C27,96.1,25.6,92,25.6,92z"/>
</g>
</svg>
